<svg width="129" height="24" viewBox="0 0 129 24" fill="none" xmlns="http://www.w3.org/2000/svg">
<path d="M0.125 19H12.6705V15.1818H4.86364V12.1818H12.0568V8.36364H4.86364V5.36364H12.7045V1.54545H0.125V19ZM19.8615 19.1705C21.7024 19.1705 22.9638 18.1818 23.5092 16.8523H23.6115V19H28.282V1.54545H23.5774V8.19318H23.5092C22.9979 6.86364 21.7706 5.73864 19.8274 5.73864C17.2365 5.73864 14.7138 7.71591 14.7138 12.4545C14.7138 16.9886 17.0661 19.1705 19.8615 19.1705ZM21.6001 15.5568C20.3047 15.5568 19.5547 14.3977 19.5547 12.4545C19.5547 10.5114 20.3047 9.35227 21.6001 9.35227C22.8956 9.35227 23.6797 10.5114 23.6797 12.4545C23.6797 14.3636 22.8956 15.5568 21.6001 15.5568ZM30.5916 19H35.2962V5.90909H30.5916V19ZM32.9439 4.54545C34.2223 4.54545 35.2621 3.58239 35.2621 2.39773C35.2621 1.21307 34.2223 0.25 32.9439 0.25C31.6655 0.25 30.6257 1.21307 30.6257 2.39773C30.6257 3.58239 31.6655 4.54545 32.9439 4.54545ZM45.5 5.90909H43.25V2.77273H38.5455V5.90909H36.875V9.31818H38.5455V15.233C38.5114 17.9773 40.2074 19.3665 43.4545 19.1875C44.5199 19.1278 45.3125 18.9062 45.7386 18.7784L45.0568 15.4716C44.8778 15.5142 44.4176 15.608 44.1364 15.608C43.5227 15.608 43.25 15.3352 43.25 14.7898V9.31818H45.5V5.90909ZM52.201 23.9091H56.9055V16.8523H56.9737C57.5192 18.1818 58.7805 19.1705 60.6214 19.1705C63.4169 19.1705 65.7692 16.9886 65.7692 12.4545C65.7692 7.71591 63.2464 5.73864 60.6555 5.73864C58.7124 5.73864 57.4851 6.86364 56.9737 8.19318H56.8714V5.90909H52.201V23.9091ZM56.8033 12.4545C56.8033 10.5114 57.5874 9.35227 58.8828 9.35227C60.1783 9.35227 60.9283 10.5114 60.9283 12.4545C60.9283 14.3977 60.1783 15.5568 58.8828 15.5568C57.5874 15.5568 56.8033 14.3636 56.8033 12.4545ZM67.7401 19H72.4446V12.1818C72.4446 10.6818 73.4759 9.69318 74.8651 9.69318C75.3509 9.69318 76.1349 9.76989 76.6037 9.93182V5.91761C76.2287 5.80682 75.8196 5.73864 75.4105 5.73864C74.0128 5.73864 72.9219 6.55682 72.4446 8.39773H72.3082V5.90909H67.7401V19ZM83.7031 19.2386C87.9645 19.2386 90.4872 16.5114 90.4872 12.4886C90.4872 8.46591 87.9645 5.73864 83.7031 5.73864C79.4418 5.73864 76.919 8.46591 76.919 12.4886C76.919 16.5114 79.4418 19.2386 83.7031 19.2386ZM83.7372 15.7614C82.4759 15.7614 81.7259 14.5085 81.7259 12.4545C81.7259 10.4006 82.4759 9.14773 83.7372 9.14773C84.9304 9.14773 85.6804 10.4006 85.6804 12.4545C85.6804 14.5085 84.9304 15.7614 83.7372 15.7614ZM100.237 5.90909H97.8509V5.32954C97.8509 4.71591 98.0895 4.30682 98.9759 4.30682C99.3168 4.30682 99.8281 4.375 100.169 4.47727L100.851 1.10227C100.305 0.965908 99.044 0.727272 97.8509 0.727272C94.9872 0.727272 93.1463 2.29545 93.1463 5.53409V5.90909H91.4759V9.31818H93.1463V19H97.8509V9.31818H100.237V5.90909ZM102.053 19H106.757V5.90909H102.053V19ZM104.405 4.54545C105.683 4.54545 106.723 3.58239 106.723 2.39773C106.723 1.21307 105.683 0.25 104.405 0.25C103.126 0.25 102.087 1.21307 102.087 2.39773C102.087 3.58239 103.126 4.54545 104.405 4.54545ZM113.859 1.54545H109.154V19H113.859V1.54545ZM122.528 19.2386C126.159 19.2386 128.494 17.5 128.938 14.7727H124.642C124.369 15.5142 123.594 15.9318 122.631 15.9318C121.233 15.9318 120.415 15.0114 120.415 13.75V13.5455H128.938V12.4545C128.938 8.28693 126.381 5.73864 122.426 5.73864C118.369 5.73864 115.778 8.43182 115.778 12.4886C115.778 16.7244 118.335 19.2386 122.528 19.2386ZM120.415 10.9545C120.44 9.82102 121.378 9.04545 122.528 9.04545C123.696 9.04545 124.582 9.82955 124.608 10.9545H120.415Z" fill="black"/>
</svg>
