<svg width="369" height="40" viewBox="0 0 369 40" fill="none" xmlns="http://www.w3.org/2000/svg">
<path d="M14.228 0.454545V22.1108C14.2131 25.6307 12.5724 27.5099 9.64915 27.5099C6.94957 27.5099 5.07031 25.8991 5.0554 23.3636H0.476562C0.476562 28.5241 4.3544 31.4176 9.52983 31.4176C15.1378 31.4176 18.8068 27.9872 18.8217 22.1108V0.454545H14.228ZM31.8386 31.5071C35.627 31.5071 37.7598 29.5831 38.6099 27.8679H38.7889V31H43.144V15.7869C43.144 9.12003 37.894 7.79261 34.2548 7.79261C30.1085 7.79261 26.2903 9.46307 24.7988 13.6392L28.9899 14.5938C29.6461 12.968 31.3166 11.402 34.3145 11.402C37.193 11.402 38.6696 12.9084 38.6696 15.5036V15.608C38.6696 17.2337 36.9991 17.2038 32.8826 17.6811C28.5424 18.1882 24.0978 19.3217 24.0978 24.527C24.0978 29.0312 27.4835 31.5071 31.8386 31.5071ZM32.8081 27.9276C30.2875 27.9276 28.4679 26.794 28.4679 24.5866C28.4679 22.2003 30.5858 21.3501 33.166 21.0071C34.6127 20.8132 38.0431 20.4254 38.6845 19.7841V22.7372C38.6845 25.4517 36.5218 27.9276 32.8081 27.9276ZM58.7337 31.4624C64.1477 31.4624 67.6527 28.2109 68.1449 23.7514H63.8047C63.2379 26.2273 61.3139 27.6889 58.7635 27.6889C54.9901 27.6889 52.5589 24.5419 52.5589 19.5455C52.5589 14.6385 55.0348 11.5511 58.7635 11.5511C61.5973 11.5511 63.3274 13.3409 63.8047 15.4886H68.1449C67.6676 10.8651 63.8942 7.79261 58.6889 7.79261C52.2308 7.79261 48.0547 12.6548 48.0547 19.6499C48.0547 26.5554 52.0817 31.4624 58.7337 31.4624ZM92.84 39.5909V8.09091H88.4849V11.8047H88.112C87.3216 10.3878 85.7853 7.79261 81.5346 7.79261C76.0012 7.79261 71.9146 12.1626 71.9146 19.5902C71.9146 27.0028 75.9416 31.4474 81.4899 31.4474C85.666 31.4474 87.3066 28.897 88.112 27.4354H88.3805V39.5909H92.84ZM88.47 19.5455C88.47 24.3629 86.3223 27.6442 82.4892 27.6442C78.5069 27.6442 76.4189 24.1392 76.4189 19.5455C76.4189 14.9964 78.4473 11.581 82.4892 11.581C86.3819 11.581 88.47 14.7578 88.47 19.5455ZM113.348 21.4993C113.363 25.392 110.469 27.2415 107.964 27.2415C105.204 27.2415 103.295 25.2429 103.295 22.1257V8.09091H98.8358V22.6626C98.8358 28.3452 101.953 31.2983 106.353 31.2983C109.798 31.2983 112.14 29.4787 113.199 27.0327H113.437V31H117.822V8.09091H113.348V21.4993ZM133.688 31.4624C138.684 31.4624 142.219 29.0014 143.233 25.2727L139.012 24.5121C138.207 26.6747 136.268 27.7784 133.733 27.7784C129.914 27.7784 127.349 25.3026 127.23 20.8878H143.517V19.3068C143.517 11.0291 138.565 7.79261 133.375 7.79261C126.991 7.79261 122.785 12.6548 122.785 19.6946C122.785 26.8089 126.931 31.4624 133.688 31.4624ZM127.245 17.5469C127.424 14.2955 129.78 11.4766 133.404 11.4766C136.865 11.4766 139.132 14.0419 139.147 17.5469H127.245ZM165.632 13.6839C164.707 10.1193 161.918 7.79261 156.966 7.79261C151.791 7.79261 148.122 10.522 148.122 14.5788C148.122 17.8303 150.09 19.9929 154.386 20.9474L158.264 21.7976C160.471 22.2898 161.5 23.2741 161.5 24.706C161.5 26.4808 159.606 27.8679 156.683 27.8679C154.013 27.8679 152.298 26.7195 151.761 24.4673L147.45 25.1236C148.196 29.1804 151.567 31.4624 156.713 31.4624C162.246 31.4624 166.079 28.5241 166.079 24.3778C166.079 21.1413 164.021 19.1428 159.815 18.1733L156.176 17.3381C153.655 16.7415 152.566 15.8913 152.581 14.3402C152.566 12.5803 154.475 11.3274 157.011 11.3274C159.785 11.3274 161.068 12.8636 161.59 14.3999L165.632 13.6839ZM207.825 10.3878C206.781 3.85511 201.666 0.0369307 195.208 0.0369307C187.303 0.0369307 181.471 5.9581 181.471 15.7273C181.471 25.4964 187.273 31.4176 195.208 31.4176C201.919 31.4176 206.826 27.2116 207.825 21.1712L203.172 21.1562C202.382 25.0639 199.1 27.2116 195.237 27.2116C190.002 27.2116 186.05 23.1996 186.05 15.7273C186.05 8.31463 189.987 4.2429 195.252 4.2429C199.145 4.2429 202.411 6.43537 203.172 10.3878H207.825ZM222.632 31.4624C229.09 31.4624 233.311 26.7344 233.311 19.6499C233.311 12.5206 229.09 7.79261 222.632 7.79261C216.174 7.79261 211.953 12.5206 211.953 19.6499C211.953 26.7344 216.174 31.4624 222.632 31.4624ZM222.647 27.7188C218.426 27.7188 216.457 24.0348 216.457 19.6349C216.457 15.25 218.426 11.5213 222.647 11.5213C226.838 11.5213 228.807 15.25 228.807 19.6349C228.807 24.0348 226.838 27.7188 222.647 27.7188ZM252.801 21.4993C252.816 25.392 249.922 27.2415 247.417 27.2415C244.657 27.2415 242.748 25.2429 242.748 22.1257V8.09091H238.289V22.6626C238.289 28.3452 241.406 31.2983 245.806 31.2983C249.251 31.2983 251.593 29.4787 252.652 27.0327H252.89V31H257.275V8.09091H252.801V21.4993ZM280.434 13.6839C279.51 10.1193 276.721 7.79261 271.769 7.79261C266.593 7.79261 262.924 10.522 262.924 14.5788C262.924 17.8303 264.893 19.9929 269.189 20.9474L273.066 21.7976C275.274 22.2898 276.303 23.2741 276.303 24.706C276.303 26.4808 274.409 27.8679 271.485 27.8679C268.816 27.8679 267.1 26.7195 266.564 24.4673L262.253 25.1236C262.999 29.1804 266.37 31.4624 271.515 31.4624C277.049 31.4624 280.882 28.5241 280.882 24.3778C280.882 21.1413 278.824 19.1428 274.618 18.1733L270.978 17.3381C268.458 16.7415 267.369 15.8913 267.384 14.3402C267.369 12.5803 269.278 11.3274 271.814 11.3274C274.588 11.3274 275.87 12.8636 276.392 14.3999L280.434 13.6839ZM296.479 8.09091H291.781V2.60227H287.321V8.09091H283.965V11.6705H287.321V25.1982C287.306 29.3594 290.483 31.3729 294.003 31.2983C295.42 31.2834 296.374 31.0149 296.896 30.821L296.091 27.1371C295.793 27.1967 295.241 27.331 294.525 27.331C293.078 27.331 291.781 26.8537 291.781 24.2734V11.6705H296.479V8.09091ZM311.039 31.4624C316.036 31.4624 319.571 29.0014 320.585 25.2727L316.364 24.5121C315.559 26.6747 313.62 27.7784 311.084 27.7784C307.266 27.7784 304.701 25.3026 304.581 20.8878H320.868V19.3068C320.868 11.0291 315.917 7.79261 310.726 7.79261C304.343 7.79261 300.137 12.6548 300.137 19.6946C300.137 26.8089 304.283 31.4624 311.039 31.4624ZM304.596 17.5469C304.775 14.2955 307.132 11.4766 310.756 11.4766C314.216 11.4766 316.483 14.0419 316.498 17.5469H304.596ZM332.483 31.5071C336.271 31.5071 338.404 29.5831 339.254 27.8679H339.433V31H343.789V15.7869C343.789 9.12003 338.539 7.79261 334.899 7.79261C330.753 7.79261 326.935 9.46307 325.443 13.6392L329.634 14.5938C330.291 12.968 331.961 11.402 334.959 11.402C337.838 11.402 339.314 12.9084 339.314 15.5036V15.608C339.314 17.2337 337.644 17.2038 333.527 17.6811C329.187 18.1882 324.742 19.3217 324.742 24.527C324.742 29.0312 328.128 31.5071 332.483 31.5071ZM333.453 27.9276C330.932 27.9276 329.112 26.794 329.112 24.5866C329.112 22.2003 331.23 21.3501 333.811 21.0071C335.257 20.8132 338.688 20.4254 339.329 19.7841V22.7372C339.329 25.4517 337.166 27.9276 333.453 27.9276ZM364.24 21.4993C364.255 25.392 361.362 27.2415 358.856 27.2415C356.097 27.2415 354.188 25.2429 354.188 22.1257V8.09091H349.728V22.6626C349.728 28.3452 352.846 31.2983 357.245 31.2983C360.691 31.2983 363.032 29.4787 364.091 27.0327H364.33V31H368.715V8.09091H364.24V21.4993Z" fill="white"/>
</svg>
